# xmcd
#
# Track frame offsets:
#	150
#	9764
#	21065
#	31859
#	44185
#	54914
#	66397
#	76687
#	87302
#	99426
#	109487
#	122757
#
# Disc length: 1793 seconds
#
# Revision: 1
# Processed by: cddbd v1.5.2PL0 Copyright (c) Steve Scherf et al.
# Submitted via: audiograbber 1.83.01
#
DISCID=9006ff0c
DTITLE=George Jones - The Race Is On
DYEAR=1965
DGENRE=Country
TTITLE0=The Race Is On
TTITLE1=Don't Let The Stars Get In Your Eyes
TTITLE2=I'll Never Let Go Of You
TTITLE3=She's Mine
TTITLE4=Three's A Crowd
TTITLE5=They'll Never Take Her Love Away From Me
TTITLE6=Your Heart Turned Left (And I Was On The Right)
TTITLE7=Ain't It Funny What A Fool Will Do
TTITLE8=It Scares Me Half To Death
TTITLE9=World's Worst Loser
TTITLE10=Time Changes Everything
TTITLE11=Take Me As I Am (Or Let Me Go)
EXTD=
EXTT0=
EXTT1=
EXTT2=
EXTT3=
EXTT4=
EXTT5=
EXTT6=
EXTT7=
EXTT8=
EXTT9=
EXTT10=
EXTT11=
PLAYORDER=
